<svg xmlns="http://www.w3.org/2000/svg" xmlns:xlink="http://www.w3.org/1999/xlink" width="150" height="145" preserveAspectRatio="xMidYMid meet" version="1.0" viewBox="0 0 112.5 108.75" zoomAndPan="magnify"><defs><clipPath id="8834ae05fd"><path d="M 0 0.117188 L 112.003906 0.117188 L 112.003906 108.386719 L 0 108.386719 Z M 0 0.117188" clip-rule="nonzero"/></clipPath><clipPath id="45e86235ba"><path d="M 24 24 L 84.761719 24 L 84.761719 84.609375 L 24 84.609375 Z M 24 24" clip-rule="nonzero"/></clipPath><clipPath id="a490f600a5"><path d="M 16.511719 16.359375 L 71 16.359375 L 71 71 L 16.511719 71 Z M 16.511719 16.359375" clip-rule="nonzero"/></clipPath></defs><g clip-path="url(#8834ae05fd)"><path fill="#fff" fill-opacity="1" fill-rule="nonzero" d="M 0 0.117188 L 112.5 0.117188 L 112.5 116.367188 L 0 116.367188 Z M 0 0.117188"/><path fill="#fff" fill-opacity="1" fill-rule="nonzero" d="M 0 0.117188 L 112.5 0.117188 L 112.5 108.867188 L 0 108.867188 Z M 0 0.117188"/><path fill="#fff" fill-opacity="1" fill-rule="nonzero" d="M 0 0.117188 L 112.5 0.117188 L 112.5 108.867188 L 0 108.867188 Z M 0 0.117188"/></g><g clip-path="url(#45e86235ba)"><path fill="#ed1c24" fill-opacity="1" fill-rule="nonzero" d="M 78.792969 31.289062 C 77.796875 31.574219 76.800781 32 75.949219 32.425781 C 75.804688 32.710938 75.664062 32.851562 75.519531 32.996094 C 75.09375 33.136719 74.527344 32.996094 74.382812 32.566406 C 74.242188 32.140625 74.382812 31.714844 74.808594 31.429688 C 75.09375 31.289062 75.378906 31.289062 75.519531 31.429688 C 76.375 31.003906 77.226562 30.71875 78.222656 30.433594 C 77.511719 29.582031 76.941406 28.730469 76.230469 27.875 C 75.664062 28.019531 75.238281 28.300781 74.667969 28.445312 C 74.527344 28.730469 74.382812 28.871094 74.097656 29.011719 C 73.671875 29.15625 73.105469 29.011719 72.960938 28.585938 C 72.820312 28.160156 72.960938 27.734375 73.53125 27.449219 C 73.816406 27.308594 74.097656 27.308594 74.382812 27.449219 C 74.808594 27.308594 75.09375 27.164062 75.519531 27.023438 C 74.667969 26.167969 73.816406 25.316406 72.820312 24.464844 C 50.921875 33.421875 33.574219 50.625 24.476562 72.378906 C 25.1875 73.375 26.039062 74.230469 26.894531 75.082031 C 26.894531 74.941406 26.894531 74.941406 27.035156 74.796875 C 26.894531 74.511719 26.894531 74.230469 27.035156 73.945312 C 27.175781 73.519531 27.746094 73.234375 28.171875 73.375 C 28.597656 73.519531 28.742188 74.085938 28.597656 74.511719 C 28.457031 74.796875 28.316406 74.941406 28.03125 75.082031 C 27.886719 75.367188 27.886719 75.507812 27.746094 75.792969 C 28.597656 76.503906 29.453125 77.214844 30.304688 77.925781 C 30.589844 77.355469 30.730469 76.789062 31.015625 76.078125 C 30.875 75.792969 30.875 75.507812 31.015625 75.367188 C 31.160156 74.941406 31.726562 74.65625 32.152344 74.941406 C 32.582031 75.082031 32.722656 75.652344 32.582031 76.078125 C 32.4375 76.363281 32.296875 76.503906 32.011719 76.503906 C 31.726562 77.214844 31.441406 77.785156 31.160156 78.496094 C 36.5625 82.332031 43.386719 84.609375 50.636719 84.609375 C 69.550781 84.609375 84.761719 69.394531 84.761719 50.484375 C 84.761719 43.375 82.628906 36.691406 78.792969 31.289062 Z M 43.957031 48.066406 C 44.097656 47.78125 44.382812 47.78125 44.667969 47.78125 C 45.519531 46.929688 46.371094 45.933594 47.367188 45.082031 C 47.367188 44.796875 47.367188 44.511719 47.652344 44.371094 C 48.078125 44.085938 48.503906 44.085938 48.933594 44.371094 C 49.214844 44.652344 49.214844 45.222656 48.789062 45.648438 C 48.648438 45.792969 48.363281 45.933594 48.078125 45.933594 C 47.226562 46.785156 46.230469 47.640625 45.378906 48.636719 C 45.378906 48.917969 45.378906 49.203125 45.09375 49.347656 C 44.808594 49.773438 44.238281 49.773438 43.8125 49.488281 C 43.527344 49.0625 43.527344 48.492188 43.957031 48.066406 Z M 38.125 55.035156 C 38.269531 54.75 38.550781 54.75 38.835938 54.605469 C 39.546875 53.613281 40.402344 52.617188 41.253906 51.621094 C 41.253906 51.335938 41.253906 51.050781 41.394531 50.910156 C 41.679688 50.484375 42.25 50.484375 42.675781 50.769531 C 42.960938 51.050781 42.960938 51.621094 42.675781 52.046875 C 42.535156 52.191406 42.25 52.332031 41.964844 52.332031 C 41.113281 53.328125 40.402344 54.324219 39.546875 55.316406 C 39.546875 55.601562 39.546875 55.886719 39.40625 56.027344 C 39.121094 56.457031 38.550781 56.457031 38.269531 56.3125 C 37.839844 55.886719 37.839844 55.316406 38.125 55.035156 Z M 33.007812 62.425781 C 33.148438 62.144531 33.433594 62 33.71875 62 C 34.429688 60.863281 35.140625 59.867188 35.851562 58.871094 C 35.707031 58.589844 35.851562 58.304688 35.992188 58.019531 C 36.277344 57.59375 36.847656 57.449219 37.128906 57.734375 C 37.558594 58.019531 37.558594 58.589844 37.273438 58.871094 C 37.128906 59.15625 36.847656 59.300781 36.5625 59.300781 C 35.851562 60.292969 35.140625 61.433594 34.429688 62.425781 C 34.570312 62.710938 34.429688 62.996094 34.285156 63.136719 C 34.003906 63.566406 33.574219 63.707031 33.148438 63.421875 C 32.863281 63.421875 32.722656 62.855469 33.007812 62.425781 Z M 31.871094 66.976562 C 31.300781 68.113281 30.730469 69.253906 30.164062 70.390625 C 30.304688 70.675781 30.304688 70.957031 30.164062 71.101562 C 29.878906 71.527344 29.453125 71.8125 29.027344 71.527344 C 28.597656 71.386719 28.457031 70.816406 28.597656 70.390625 C 28.742188 70.105469 29.027344 69.964844 29.167969 69.820312 C 29.738281 68.683594 30.304688 67.546875 30.875 66.410156 C 30.730469 66.125 30.730469 65.839844 30.875 65.554688 C 31.160156 65.128906 31.585938 64.988281 32.011719 65.128906 C 32.4375 65.414062 32.582031 65.839844 32.296875 66.265625 C 32.296875 66.835938 32.152344 66.976562 31.871094 66.976562 Z M 36.136719 68.542969 C 35.992188 68.824219 35.851562 68.96875 35.566406 68.96875 C 34.996094 69.964844 34.429688 71.101562 33.859375 72.238281 C 34.003906 72.523438 34.003906 72.664062 33.859375 72.949219 C 33.71875 73.375 33.148438 73.519531 32.722656 73.375 C 32.296875 73.234375 32.152344 72.664062 32.296875 72.238281 C 32.4375 71.953125 32.722656 71.8125 32.863281 71.8125 C 33.433594 70.675781 34.003906 69.679688 34.570312 68.542969 C 34.429688 68.257812 34.429688 67.972656 34.570312 67.832031 C 34.855469 67.402344 35.28125 67.261719 35.707031 67.546875 C 36.136719 67.546875 36.277344 68.113281 36.136719 68.542969 Z M 40.542969 61.289062 C 40.402344 61.574219 40.117188 61.574219 39.972656 61.714844 C 39.261719 62.710938 38.695312 63.707031 37.984375 64.703125 C 38.125 64.988281 37.984375 65.128906 37.839844 65.414062 C 37.558594 65.839844 37.128906 65.980469 36.703125 65.699219 C 36.277344 65.414062 36.136719 64.988281 36.417969 64.558594 C 36.5625 64.277344 36.847656 64.132812 37.128906 64.132812 C 37.699219 63.136719 38.410156 62.144531 39.121094 61.148438 C 38.980469 60.863281 39.121094 60.578125 39.261719 60.4375 C 39.546875 60.011719 40.117188 60.011719 40.402344 60.152344 C 40.683594 60.4375 40.828125 61.003906 40.542969 61.289062 Z M 45.660156 54.605469 C 45.519531 54.75 45.234375 54.890625 44.949219 54.890625 C 44.238281 55.746094 43.386719 56.738281 42.675781 57.734375 C 42.675781 58.019531 42.675781 58.304688 42.535156 58.445312 C 42.25 58.871094 41.679688 58.871094 41.394531 58.589844 C 40.96875 58.304688 40.96875 57.734375 41.253906 57.449219 C 41.394531 57.167969 41.679688 57.167969 41.964844 57.167969 C 42.675781 56.171875 43.386719 55.316406 44.238281 54.324219 C 44.238281 54.039062 44.238281 53.753906 44.382812 53.613281 C 44.667969 53.183594 45.234375 53.183594 45.519531 53.46875 C 45.945312 53.753906 46.089844 54.324219 45.660156 54.605469 Z M 51.492188 48.636719 C 51.347656 48.777344 51.066406 48.917969 50.78125 48.917969 C 49.925781 49.773438 49.074219 50.625 48.222656 51.480469 C 48.222656 51.761719 48.222656 51.90625 47.9375 52.191406 C 47.652344 52.472656 47.082031 52.617188 46.800781 52.191406 C 46.515625 51.90625 46.515625 51.335938 46.800781 51.050781 C 46.941406 50.910156 47.226562 50.769531 47.511719 50.769531 C 48.363281 49.914062 49.214844 49.0625 50.070312 48.207031 C 50.070312 47.925781 50.070312 47.640625 50.355469 47.496094 C 50.636719 47.214844 51.207031 47.214844 51.492188 47.496094 C 51.917969 47.78125 51.917969 48.207031 51.492188 48.636719 Z M 51.492188 43.089844 C 51.066406 43.375 50.636719 43.375 50.210938 43.089844 C 49.925781 42.804688 49.925781 42.238281 50.355469 41.808594 C 50.636719 41.667969 50.921875 41.527344 51.066406 41.667969 C 52.058594 40.816406 53.054688 40.105469 54.050781 39.25 C 54.050781 38.964844 54.191406 38.683594 54.476562 38.539062 C 54.902344 38.253906 55.472656 38.253906 55.757812 38.683594 C 56.042969 39.109375 55.898438 39.535156 55.472656 39.820312 C 55.1875 39.960938 55.046875 40.105469 54.761719 39.960938 C 53.765625 40.671875 52.769531 41.527344 51.777344 42.378906 C 51.777344 42.664062 51.777344 42.949219 51.492188 43.089844 Z M 58.03125 43.089844 C 57.890625 43.230469 57.605469 43.230469 57.320312 43.230469 C 56.324219 43.941406 55.472656 44.652344 54.476562 45.507812 C 54.476562 45.792969 54.335938 45.933594 54.191406 46.21875 C 53.910156 46.503906 53.339844 46.503906 53.054688 46.21875 C 52.769531 45.933594 52.769531 45.363281 53.199219 45.082031 C 53.480469 44.9375 53.625 44.796875 53.910156 44.9375 C 54.761719 44.226562 55.757812 43.375 56.753906 42.664062 C 56.753906 42.378906 56.894531 42.09375 57.035156 41.953125 C 57.464844 41.667969 57.890625 41.667969 58.175781 42.09375 C 58.457031 42.378906 58.316406 42.804688 58.03125 43.089844 Z M 58.457031 37.6875 C 58.03125 37.972656 57.464844 37.828125 57.320312 37.542969 C 57.035156 37.117188 57.179688 36.691406 57.605469 36.40625 C 57.890625 36.265625 58.175781 36.265625 58.457031 36.265625 C 59.453125 35.554688 60.589844 34.84375 61.585938 34.132812 C 61.585938 33.847656 61.730469 33.5625 62.011719 33.421875 C 62.441406 33.136719 63.007812 33.277344 63.152344 33.707031 C 63.433594 34.132812 63.292969 34.558594 62.867188 34.84375 C 62.582031 34.984375 62.296875 34.984375 62.15625 34.984375 C 61.019531 35.695312 60.023438 36.40625 59.027344 37.117188 C 58.886719 37.261719 58.742188 37.542969 58.457031 37.6875 Z M 65 38.398438 C 64.714844 38.539062 64.574219 38.539062 64.289062 38.539062 C 63.292969 39.109375 62.296875 39.820312 61.300781 40.53125 C 61.300781 40.816406 61.160156 40.957031 60.875 41.097656 C 60.449219 41.382812 60.023438 41.242188 59.738281 40.957031 C 59.453125 40.53125 59.597656 40.105469 60.023438 39.820312 C 60.308594 39.675781 60.589844 39.675781 60.734375 39.675781 C 61.730469 38.964844 62.722656 38.398438 63.71875 37.6875 C 63.71875 37.402344 63.863281 37.117188 64.144531 36.976562 C 64.574219 36.691406 65.140625 36.832031 65.285156 37.261719 C 65.425781 37.542969 65.285156 38.113281 65 38.398438 Z M 65.996094 32.996094 C 65.566406 33.277344 65 33.136719 64.855469 32.710938 C 64.574219 32.285156 64.855469 31.855469 65.285156 31.574219 C 65.566406 31.429688 65.851562 31.429688 66.136719 31.574219 C 67.273438 31.003906 68.410156 30.433594 69.550781 29.867188 C 69.550781 29.582031 69.832031 29.441406 70.117188 29.296875 C 70.542969 29.011719 71.113281 29.296875 71.253906 29.582031 C 71.398438 30.007812 71.253906 30.433594 70.828125 30.71875 C 70.542969 30.863281 70.261719 30.863281 70.117188 30.71875 C 68.980469 31.289062 67.84375 31.855469 66.707031 32.425781 C 66.421875 32.566406 66.277344 32.851562 65.996094 32.996094 Z M 72.394531 34.273438 C 72.109375 34.417969 71.824219 34.417969 71.683594 34.273438 C 70.542969 34.84375 69.550781 35.410156 68.410156 35.980469 C 68.410156 36.265625 68.269531 36.40625 67.984375 36.550781 C 67.558594 36.832031 66.988281 36.691406 66.847656 36.265625 C 66.5625 35.839844 66.847656 35.410156 67.132812 35.128906 C 67.417969 34.984375 67.699219 34.984375 67.84375 35.128906 C 68.839844 34.558594 69.976562 33.988281 71.113281 33.421875 C 71.113281 33.136719 71.253906 32.996094 71.539062 32.851562 C 71.964844 32.710938 72.535156 32.851562 72.675781 33.277344 C 73.105469 33.5625 72.820312 34.132812 72.394531 34.273438 Z M 72.394531 34.273438"/></g><path fill="#ed1c24" fill-opacity="1" fill-rule="nonzero" d="M 78.222656 30.433594 C 78.222656 30.578125 78.363281 30.578125 78.363281 30.71875 C 78.363281 30.578125 78.363281 30.433594 78.222656 30.433594 Z M 78.222656 30.433594"/><path fill="#ed1c24" fill-opacity="1" fill-rule="nonzero" d="M 72.535156 24.320312 C 71.964844 23.894531 71.398438 23.324219 70.828125 22.898438 C 71.398438 23.46875 71.964844 23.894531 72.535156 24.320312 Z M 72.535156 24.320312"/><path fill="#ed1c24" fill-opacity="1" fill-rule="nonzero" d="M 62.296875 18.347656 C 62.15625 18.347656 62.15625 18.347656 62.15625 18.347656 C 62.296875 18.347656 62.441406 18.492188 62.582031 18.492188 C 62.441406 18.492188 62.296875 18.347656 62.296875 18.347656 Z M 62.296875 18.347656"/><path fill="#ed1c24" fill-opacity="1" fill-rule="nonzero" d="M 75.664062 27.308594 C 75.804688 27.449219 75.949219 27.589844 76.089844 27.734375 C 75.949219 27.589844 75.804688 27.449219 75.664062 27.308594 Z M 75.664062 27.308594"/><path fill="#ed1c24" fill-opacity="1" fill-rule="nonzero" d="M 75.519531 27.023438 C 75.378906 27.023438 75.378906 27.023438 75.519531 27.023438 C 75.519531 27.164062 75.664062 27.164062 75.664062 27.308594 C 75.519531 27.164062 75.519531 27.164062 75.519531 27.023438 Z M 75.519531 27.023438"/><path fill="#ed1c24" fill-opacity="1" fill-rule="nonzero" d="M 76.230469 27.875 C 76.230469 27.875 76.089844 27.734375 76.089844 27.734375 C 76.089844 27.734375 76.089844 27.875 76.230469 27.875 Z M 76.230469 27.875"/><path fill="#ed1c24" fill-opacity="1" fill-rule="nonzero" d="M 72.535156 24.320312 C 72.675781 24.320312 72.675781 24.464844 72.820312 24.464844 C 72.675781 24.464844 72.675781 24.464844 72.535156 24.320312 Z M 72.535156 24.320312"/><path fill="#ed1c24" fill-opacity="1" fill-rule="nonzero" d="M 70.542969 22.898438 C 70.6875 22.898438 70.6875 23.042969 70.828125 23.042969 C 70.6875 22.898438 70.6875 22.898438 70.542969 22.898438 Z M 70.542969 22.898438"/><g clip-path="url(#a490f600a5)"><path fill="#ed1c24" fill-opacity="1" fill-rule="nonzero" d="M 63.007812 18.632812 C 63.152344 18.632812 63.152344 18.632812 63.292969 18.777344 C 63.152344 18.917969 63.152344 19.058594 62.867188 19.058594 C 62.441406 19.203125 61.871094 19.058594 61.730469 18.632812 C 61.730469 18.492188 61.585938 18.347656 61.730469 18.207031 C 61.871094 18.207031 61.871094 18.207031 62.011719 18.347656 C 58.457031 17.070312 54.621094 16.359375 50.636719 16.359375 C 31.726562 16.359375 16.511719 31.574219 16.511719 50.484375 C 16.511719 56.171875 17.933594 61.433594 20.351562 66.265625 C 20.496094 65.839844 20.777344 65.269531 20.921875 64.84375 C 20.777344 64.558594 20.777344 64.417969 20.921875 64.132812 C 21.0625 63.707031 21.632812 63.421875 22.058594 63.707031 C 22.484375 63.847656 22.628906 64.417969 22.484375 64.84375 C 22.34375 65.128906 22.199219 65.269531 21.917969 65.269531 C 21.632812 65.980469 21.347656 66.691406 21.0625 67.402344 C 21.632812 68.398438 22.199219 69.394531 22.910156 70.246094 C 32.011719 48.917969 49.214844 31.855469 70.542969 22.898438 C 68.128906 21.050781 65.285156 19.628906 62.441406 18.492188 C 62.582031 18.492188 62.867188 18.632812 63.007812 18.632812 Z M 33.574219 37.542969 C 33.71875 37.402344 34.003906 37.261719 34.285156 37.261719 C 35.140625 36.40625 35.992188 35.554688 36.847656 34.699219 C 36.847656 34.417969 36.847656 34.132812 37.128906 33.988281 C 37.414062 33.707031 37.984375 33.707031 38.269531 33.988281 C 38.550781 34.273438 38.550781 34.84375 38.125 35.128906 C 37.984375 35.269531 37.699219 35.410156 37.414062 35.410156 C 36.5625 36.265625 35.707031 37.117188 34.855469 37.972656 C 34.855469 38.253906 34.855469 38.398438 34.570312 38.683594 C 34.429688 39.109375 33.859375 39.109375 33.574219 38.824219 C 33.148438 38.539062 33.148438 37.972656 33.574219 37.542969 Z M 27.886719 44.226562 C 28.03125 43.941406 28.316406 43.941406 28.597656 43.941406 C 29.308594 42.949219 30.164062 42.09375 30.875 41.097656 C 30.875 40.816406 30.875 40.53125 31.015625 40.386719 C 31.300781 39.960938 31.871094 39.960938 32.152344 40.246094 C 32.4375 40.53125 32.4375 41.097656 32.152344 41.382812 C 32.011719 41.527344 31.726562 41.667969 31.441406 41.667969 C 30.589844 42.664062 29.878906 43.515625 29.167969 44.511719 C 29.167969 44.796875 29.167969 45.082031 29.027344 45.222656 C 28.742188 45.648438 28.171875 45.648438 27.886719 45.363281 C 27.605469 45.222656 27.605469 44.652344 27.886719 44.226562 Z M 22.910156 51.621094 C 23.054688 51.335938 23.339844 51.195312 23.621094 51.195312 C 24.332031 50.199219 24.902344 49.0625 25.613281 48.066406 C 25.472656 47.78125 25.613281 47.496094 25.753906 47.355469 C 26.039062 46.929688 26.609375 46.785156 26.894531 47.070312 C 27.320312 47.355469 27.320312 47.78125 27.035156 48.207031 C 26.894531 48.492188 26.609375 48.492188 26.464844 48.636719 C 25.753906 49.628906 25.042969 50.625 24.476562 51.761719 C 24.476562 52.046875 24.476562 52.332031 24.332031 52.472656 C 24.050781 52.902344 23.621094 53.042969 23.195312 52.757812 C 22.769531 52.472656 22.628906 51.90625 22.910156 51.621094 Z M 21.773438 56.027344 C 21.207031 57.167969 20.636719 58.160156 20.066406 59.300781 C 20.210938 59.582031 20.210938 59.726562 20.066406 60.011719 C 19.925781 60.4375 19.355469 60.722656 18.929688 60.4375 C 18.503906 60.292969 18.363281 59.726562 18.644531 59.300781 C 18.789062 59.015625 19.074219 58.871094 19.214844 58.871094 C 19.785156 57.734375 20.351562 56.597656 20.921875 55.601562 C 20.777344 55.316406 20.777344 55.035156 20.921875 54.890625 C 21.207031 54.464844 21.632812 54.324219 22.058594 54.464844 C 22.484375 54.75 22.628906 55.175781 22.34375 55.601562 C 22.199219 55.746094 22.058594 55.886719 21.773438 56.027344 Z M 25.898438 57.449219 C 25.753906 57.734375 25.613281 57.878906 25.328125 57.878906 C 24.761719 58.871094 24.191406 60.011719 23.765625 61.003906 C 23.90625 61.289062 23.90625 61.433594 23.765625 61.714844 C 23.621094 62.144531 23.054688 62.285156 22.628906 62.144531 C 22.199219 62 22.058594 61.433594 22.199219 61.003906 C 22.34375 60.722656 22.484375 60.578125 22.769531 60.578125 C 23.339844 59.582031 23.765625 58.445312 24.332031 57.449219 C 24.191406 57.167969 24.191406 56.882812 24.332031 56.738281 C 24.617188 56.3125 25.042969 56.171875 25.472656 56.457031 C 26.039062 56.597656 26.039062 57.023438 25.898438 57.449219 Z M 30.304688 50.484375 C 30.164062 50.769531 29.878906 50.769531 29.738281 50.769531 C 29.027344 51.761719 28.457031 52.757812 27.886719 53.753906 C 28.03125 54.039062 27.886719 54.179688 27.746094 54.464844 C 27.460938 54.890625 26.894531 55.035156 26.464844 54.75 C 26.039062 54.464844 26.039062 54.039062 26.183594 53.613281 C 26.464844 53.328125 26.609375 53.328125 26.894531 53.183594 C 27.460938 52.191406 28.171875 51.195312 28.882812 50.199219 C 28.742188 49.914062 28.882812 49.628906 29.027344 49.488281 C 29.308594 49.0625 29.738281 49.0625 30.164062 49.203125 C 30.449219 49.628906 30.449219 50.058594 30.304688 50.484375 Z M 35.28125 43.941406 C 35.140625 44.085938 34.855469 44.226562 34.570312 44.226562 C 33.859375 45.082031 33.148438 46.074219 32.4375 46.929688 C 32.4375 47.214844 32.4375 47.355469 32.296875 47.640625 C 32.011719 48.066406 31.441406 48.066406 31.160156 47.78125 C 30.730469 47.640625 30.730469 47.070312 31.015625 46.644531 C 31.160156 46.359375 31.441406 46.359375 31.726562 46.359375 C 32.4375 45.507812 33.148438 44.511719 34.003906 43.660156 C 34.003906 43.375 34.003906 43.089844 34.144531 42.949219 C 34.429688 42.664062 34.996094 42.519531 35.28125 42.804688 C 35.566406 43.089844 35.566406 43.660156 35.28125 43.941406 Z M 40.96875 38.113281 C 40.828125 38.253906 40.542969 38.398438 40.257812 38.398438 C 39.40625 39.25 38.550781 39.960938 37.839844 40.816406 C 37.839844 41.097656 37.839844 41.242188 37.558594 41.527344 C 37.273438 41.808594 36.703125 41.953125 36.417969 41.527344 C 36.136719 41.242188 36.136719 40.671875 36.417969 40.386719 C 36.5625 40.246094 36.847656 40.105469 37.128906 40.105469 C 37.984375 39.25 38.695312 38.398438 39.546875 37.6875 C 39.546875 37.402344 39.546875 37.117188 39.832031 36.976562 C 40.117188 36.691406 40.683594 36.691406 40.96875 36.976562 C 41.253906 37.261719 41.253906 37.828125 40.96875 38.113281 Z M 41.253906 32.140625 C 41.253906 32.425781 41.113281 32.566406 40.96875 32.851562 C 40.542969 33.136719 40.117188 33.136719 39.832031 32.851562 C 39.546875 32.566406 39.546875 32 39.972656 31.714844 C 40.257812 31.574219 40.402344 31.429688 40.683594 31.574219 C 41.679688 30.71875 42.535156 30.007812 43.527344 29.296875 C 43.527344 29.011719 43.671875 28.730469 43.8125 28.585938 C 44.238281 28.300781 44.667969 28.300781 44.949219 28.730469 C 45.234375 29.011719 45.09375 29.582031 44.808594 29.867188 C 44.523438 30.007812 44.382812 30.007812 44.097656 30.007812 C 43.101562 30.578125 42.105469 31.289062 41.253906 32.140625 Z M 47.226562 32.710938 C 47.082031 32.851562 46.800781 32.851562 46.515625 32.851562 C 45.660156 33.5625 44.667969 34.273438 43.8125 34.984375 C 43.8125 35.269531 43.671875 35.410156 43.527344 35.695312 C 43.246094 35.980469 42.675781 35.980469 42.390625 35.695312 C 42.105469 35.410156 42.105469 34.84375 42.535156 34.558594 C 42.675781 34.417969 42.960938 34.273438 43.246094 34.417969 C 44.097656 33.707031 45.09375 32.996094 45.945312 32.140625 C 45.945312 31.855469 46.089844 31.574219 46.230469 31.429688 C 46.65625 31.144531 47.082031 31.144531 47.367188 31.574219 C 47.652344 32 47.511719 32.425781 47.226562 32.710938 Z M 47.652344 27.449219 C 47.367188 27.734375 46.800781 27.734375 46.515625 27.308594 C 46.230469 26.878906 46.371094 26.453125 46.800781 26.167969 C 47.082031 26.027344 47.367188 26.027344 47.511719 26.027344 C 48.503906 25.316406 49.5 24.605469 50.636719 24.035156 C 50.636719 23.753906 50.78125 23.46875 51.066406 23.324219 C 51.492188 23.042969 52.058594 23.183594 52.203125 23.609375 C 52.488281 24.035156 52.34375 24.464844 51.917969 24.746094 C 51.632812 24.890625 51.347656 24.890625 51.207031 24.746094 C 50.210938 25.457031 49.074219 26.027344 48.078125 26.738281 C 48.078125 27.023438 47.9375 27.308594 47.652344 27.449219 Z M 53.910156 28.160156 C 53.625 28.300781 53.480469 28.300781 53.199219 28.300781 C 52.203125 28.871094 51.207031 29.582031 50.210938 30.152344 C 50.210938 30.433594 50.070312 30.578125 49.925781 30.71875 C 49.5 31.003906 49.074219 30.863281 48.789062 30.578125 C 48.503906 30.152344 48.648438 29.722656 49.074219 29.441406 C 49.359375 29.296875 49.644531 29.296875 49.785156 29.296875 C 50.78125 28.585938 51.777344 28.019531 52.769531 27.308594 C 52.769531 27.023438 52.914062 26.878906 53.199219 26.738281 C 53.625 26.453125 54.050781 26.597656 54.335938 27.023438 C 54.476562 27.449219 54.335938 27.875 53.910156 28.160156 Z M 55.046875 22.898438 C 54.621094 23.183594 54.050781 23.042969 53.910156 22.613281 C 53.625 22.1875 53.910156 21.761719 54.335938 21.476562 C 54.621094 21.335938 54.902344 21.335938 55.046875 21.476562 C 56.183594 20.910156 57.179688 20.339844 58.316406 19.769531 C 58.316406 19.488281 58.601562 19.34375 58.742188 19.203125 C 59.167969 18.917969 59.738281 19.203125 59.878906 19.488281 C 60.023438 19.914062 59.878906 20.339844 59.453125 20.625 C 59.167969 20.765625 58.886719 20.765625 58.742188 20.625 C 57.605469 21.191406 56.46875 21.761719 55.472656 22.332031 C 55.472656 22.472656 55.332031 22.757812 55.046875 22.898438 Z M 61.300781 24.179688 C 61.019531 24.320312 60.875 24.320312 60.589844 24.179688 C 59.597656 24.746094 58.457031 25.175781 57.464844 25.742188 C 57.464844 26.027344 57.320312 26.167969 57.035156 26.3125 C 56.609375 26.597656 56.183594 26.453125 55.898438 26.027344 C 55.613281 25.601562 55.898438 25.175781 56.183594 24.890625 C 56.46875 24.890625 56.753906 24.890625 56.894531 24.890625 C 57.890625 24.320312 59.027344 23.753906 60.023438 23.324219 C 60.023438 23.042969 60.164062 22.898438 60.449219 22.757812 C 60.875 22.613281 61.300781 22.757812 61.585938 23.183594 C 61.871094 23.46875 61.730469 24.035156 61.300781 24.179688 Z M 63.578125 21.335938 C 63.863281 21.191406 64.144531 21.191406 64.289062 21.335938 C 65.140625 21.050781 65.996094 20.625 66.707031 20.339844 C 67.132812 20.480469 67.417969 20.765625 67.84375 20.910156 C 66.707031 21.335938 65.710938 21.761719 64.574219 22.1875 C 64.574219 22.472656 64.289062 22.613281 64.144531 22.757812 C 63.71875 22.898438 63.292969 22.757812 63.007812 22.332031 C 62.867188 22.046875 63.152344 21.621094 63.578125 21.335938 Z M 63.578125 21.335938"/></g></svg>