<svg xmlns="http://www.w3.org/2000/svg" xmlns:xlink="http://www.w3.org/1999/xlink" id="US_UK_Download_on_the" x="0" y="0" version="1.1" viewBox="0 0 405 120" style="enable-background:new 0 0 405 120" xml:space="preserve"><style type="text/css">.st0{fill:#a6a6a6}.st1{fill:#fff}</style><g><path d="M390.591,120H14.187C6.366,120,0,113.616,0,105.801V14.178C0,6.36,6.366,0,14.187,0h376.404 C398.409,0,405,6.36,405,14.178v91.623C405,113.616,398.409,120,390.591,120L390.591,120z" class="st0"/><path d="M402.096,105.804c0,6.348-5.142,11.49-11.502,11.49H14.187c-6.357,0-11.517-5.142-11.517-11.49V14.175 C2.67,7.83,7.83,2.67,14.187,2.67h376.404c6.363,0,11.502,5.16,11.502,11.505L402.096,105.804L402.096,105.804z"/><g><g><path d="M90.384,59.352c-0.087-9.669,7.917-14.373,8.283-14.592c-4.533-6.609-11.559-7.512-14.028-7.584 c-5.901-0.621-11.625,3.531-14.631,3.531c-3.066,0-7.695-3.471-12.684-3.369c-6.42,0.099-12.426,3.816-15.72,9.588 c-6.798,11.769-1.728,29.064,4.785,38.577c3.258,4.659,7.065,9.861,12.048,9.678c4.875-0.201,6.696-3.108,12.579-3.108 c5.829,0,7.539,3.108,12.621,2.991c5.232-0.084,8.526-4.68,11.67-9.381c3.765-5.34,5.277-10.599,5.337-10.869 C100.521,74.772,90.483,70.941,90.384,59.352z" class="st1"/><path d="M80.784,30.918c2.622-3.279,4.416-7.74,3.918-12.267c-3.795,0.168-8.541,2.625-11.274,5.832 c-2.418,2.826-4.578,7.458-4.02,11.814C73.671,36.615,78.048,34.146,80.784,30.918z" class="st1"/></g></g><g><path d="M160.935,94.512h-6.813l-3.732-11.727h-12.972l-3.555,11.727h-6.633l12.852-39.924h7.938L160.935,94.512z M149.265,77.865L145.89,67.44c-0.357-1.065-1.026-3.573-2.013-7.521h-0.12c-0.393,1.698-1.026,4.206-1.896,7.521l-3.315,10.425 H149.265z" class="st1"/><path d="M193.986,79.764c0,4.896-1.323,8.766-3.969,11.607c-2.37,2.529-5.313,3.792-8.826,3.792 c-3.792,0-6.516-1.362-8.175-4.086h-0.12v15.165H166.5V75.201c0-3.078-0.081-6.237-0.237-9.477h5.625l0.357,4.563h0.12 c2.133-3.438,5.37-5.154,9.714-5.154c3.396,0,6.231,1.341,8.499,4.026C192.852,71.847,193.986,75.381,193.986,79.764z M187.47,79.998c0-2.802-0.63-5.112-1.896-6.93c-1.383-1.896-3.24-2.844-5.568-2.844c-1.578,0-3.012,0.528-4.293,1.569 c-1.284,1.05-2.124,2.421-2.517,4.119c-0.198,0.792-0.297,1.44-0.297,1.95v4.8c0,2.094,0.642,3.861,1.926,5.304 c1.284,1.443,2.952,2.163,5.004,2.163c2.409,0,4.284-0.93,5.625-2.784C186.798,85.488,187.47,83.04,187.47,79.998z" class="st1"/><path d="M227.097,79.764c0,4.896-1.323,8.766-3.972,11.607c-2.367,2.529-5.31,3.792-8.823,3.792 c-3.792,0-6.516-1.362-8.172-4.086h-0.12v15.165h-6.396V75.201c0-3.078-0.081-6.237-0.237-9.477h5.625l0.357,4.563h0.12 c2.13-3.438,5.367-5.154,9.714-5.154c3.393,0,6.228,1.341,8.502,4.026C225.96,71.847,227.097,75.381,227.097,79.764z M220.581,79.998c0-2.802-0.633-5.112-1.899-6.93c-1.383-1.896-3.234-2.844-5.565-2.844c-1.581,0-3.012,0.528-4.296,1.569 c-1.284,1.05-2.121,2.421-2.514,4.119c-0.195,0.792-0.297,1.44-0.297,1.95v4.8c0,2.094,0.642,3.861,1.92,5.304 c1.284,1.44,2.952,2.163,5.01,2.163c2.409,0,4.284-0.93,5.625-2.784C219.909,85.488,220.581,83.04,220.581,79.998z" class="st1"/><path d="M264.117,83.316c0,3.396-1.179,6.159-3.546,8.292c-2.601,2.331-6.222,3.495-10.875,3.495 c-4.296,0-7.74-0.828-10.347-2.487l1.482-5.331c2.808,1.698,5.889,2.55,9.246,2.55c2.409,0,4.284-0.546,5.631-1.632 c1.341-1.086,2.01-2.544,2.01-4.362c0-1.62-0.552-2.985-1.659-4.092c-1.101-1.107-2.94-2.136-5.508-3.087 c-6.99-2.607-10.482-6.426-10.482-11.448c0-3.282,1.224-5.973,3.675-8.067c2.442-2.097,5.7-3.144,9.774-3.144 c3.633,0,6.651,0.633,9.06,1.896l-1.599,5.214c-2.25-1.224-4.794-1.836-7.641-1.836c-2.25,0-4.008,0.555-5.268,1.659 c-1.065,0.987-1.599,2.19-1.599,3.615c0,1.578,0.609,2.883,1.833,3.909c1.065,0.948,3,1.974,5.808,3.081 c3.435,1.383,5.958,3,7.581,4.854C263.31,78.243,264.117,80.556,264.117,83.316z" class="st1"/><path d="M285.264,70.524h-7.05v13.977c0,3.555,1.242,5.331,3.732,5.331c1.143,0,2.091-0.099,2.841-0.297l0.177,4.857 c-1.26,0.471-2.919,0.708-4.974,0.708c-2.526,0-4.5-0.771-5.925-2.31c-1.419-1.542-2.133-4.128-2.133-7.761V70.518h-4.2v-4.8h4.2 v-5.271l6.282-1.896v7.167h7.05C285.264,65.718,285.264,70.524,285.264,70.524z" class="st1"/><path d="M317.073,79.881c0,4.425-1.266,8.058-3.792,10.899c-2.649,2.925-6.165,4.383-10.548,4.383 c-4.224,0-7.587-1.401-10.095-4.203s-3.762-6.339-3.762-10.602c0-4.461,1.29-8.115,3.879-10.956 c2.583-2.844,6.069-4.266,10.452-4.266c4.224,0,7.623,1.401,10.188,4.206C315.849,72.063,317.073,75.576,317.073,79.881z M310.437,80.088c0-2.655-0.567-4.932-1.716-6.831c-1.341-2.298-3.258-3.444-5.742-3.444c-2.571,0-4.524,1.149-5.865,3.444 c-1.149,1.902-1.716,4.215-1.716,6.951c0,2.655,0.567,4.932,1.716,6.828c1.383,2.298,3.315,3.444,5.808,3.444 c2.442,0,4.359-1.17,5.742-3.504C309.843,85.041,310.437,82.74,310.437,80.088z" class="st1"/><path d="M337.863,71.349c-0.633-0.117-1.308-0.177-2.016-0.177c-2.25,0-3.99,0.849-5.214,2.55 c-1.065,1.5-1.599,3.396-1.599,5.685v15.105h-6.393l0.06-19.722c0-3.318-0.081-6.339-0.24-9.063h5.571l0.234,5.508h0.177 c0.675-1.893,1.74-3.417,3.198-4.56c1.425-1.029,2.964-1.542,4.623-1.542c0.591,0,1.125,0.042,1.599,0.117 C337.863,65.25,337.863,71.349,337.863,71.349z" class="st1"/><path d="M366.468,78.756c0,1.146-0.075,2.112-0.234,2.901h-19.188c0.075,2.844,1.002,5.019,2.784,6.519 c1.617,1.341,3.708,2.013,6.276,2.013c2.841,0,5.433-0.453,7.764-1.362l1.002,4.44c-2.724,1.188-5.94,1.779-9.651,1.779 c-4.464,0-7.968-1.314-10.518-3.939c-2.544-2.625-3.819-6.15-3.819-10.572c0-4.341,1.185-7.956,3.558-10.839 c2.484-3.078,5.841-4.617,10.065-4.617c4.149,0,7.29,1.539,9.423,4.617C365.619,72.141,366.468,75.165,366.468,78.756z M360.369,77.097c0.042-1.896-0.375-3.534-1.242-4.917c-1.107-1.779-2.808-2.667-5.097-2.667c-2.091,0-3.792,0.867-5.091,2.607 c-1.065,1.383-1.698,3.042-1.893,4.974h13.323V77.097z" class="st1"/></g><g><g><path d="M147.15,30.027c0,3.531-1.059,6.189-3.174,7.974c-1.959,1.647-4.743,2.472-8.349,2.472 c-1.788,0-3.318-0.078-4.599-0.234V20.946c1.671-0.27,3.471-0.408,5.415-0.408c3.435,0,6.024,0.747,7.77,2.241 C146.169,24.468,147.15,26.883,147.15,30.027z M143.835,30.114c0-2.289-0.606-4.044-1.818-5.268 c-1.212-1.221-2.982-1.833-5.313-1.833c-0.99,0-1.833,0.066-2.532,0.204v14.667c0.387,0.06,1.095,0.087,2.124,0.087 c2.406,0,4.263-0.669,5.571-2.007C143.175,34.626,143.835,32.676,143.835,30.114z" class="st1"/><path d="M164.727,33.111c0,2.175-0.621,3.957-1.863,5.355c-1.302,1.437-3.027,2.154-5.181,2.154 c-2.076,0-3.729-0.687-4.962-2.067c-1.23-1.377-1.845-3.114-1.845-5.208c0-2.19,0.633-3.987,1.905-5.382 c1.272-1.395,2.982-2.094,5.136-2.094c2.076,0,3.744,0.687,5.007,2.064C164.124,29.271,164.727,30.999,164.727,33.111z M161.466,33.213c0-1.305-0.282-2.424-0.843-3.357c-0.66-1.128-1.599-1.692-2.82-1.692c-1.263,0-2.223,0.564-2.883,1.692 c-0.564,0.933-0.843,2.07-0.843,3.414c0,1.305,0.282,2.424,0.843,3.357c0.681,1.128,1.629,1.692,2.853,1.692 c1.2,0,2.142-0.573,2.82-1.722C161.175,35.646,161.466,34.518,161.466,33.213z" class="st1"/><path d="M188.295,26.157l-4.425,14.142h-2.88l-1.833-6.141c-0.465-1.533-0.843-3.057-1.137-4.569h-0.057 c-0.273,1.554-0.651,3.075-1.137,4.569l-1.947,6.141h-2.913l-4.161-14.142h3.231l1.599,6.723c0.387,1.59,0.705,3.105,0.96,4.539 h0.057c0.234-1.182,0.621-2.688,1.167-4.509l2.007-6.75h2.562l1.923,6.606c0.465,1.611,0.843,3.162,1.134,4.656h0.087 c0.213-1.455,0.534-3.006,0.96-4.656l1.716-6.606h3.087V26.157z" class="st1"/><path d="M204.594,40.299h-3.144v-8.1c0-2.496-0.948-3.744-2.85-3.744c-0.933,0-1.686,0.342-2.271,1.029 c-0.579,0.687-0.873,1.497-0.873,2.424v8.388h-3.144V30.198c0-1.242-0.039-2.589-0.114-4.047h2.763l0.147,2.211h0.087 c0.366-0.687,0.912-1.254,1.629-1.707c0.852-0.528,1.806-0.795,2.85-0.795c1.32,0,2.418,0.426,3.291,1.281 c1.086,1.047,1.629,2.61,1.629,4.686V40.299z" class="st1"/><path d="M213.264,40.299h-3.141V19.668h3.141V40.299z" class="st1"/><path d="M231.774,33.111c0,2.175-0.621,3.957-1.863,5.355c-1.302,1.437-3.03,2.154-5.181,2.154 c-2.079,0-3.732-0.687-4.962-2.067c-1.23-1.377-1.845-3.114-1.845-5.208c0-2.19,0.633-3.987,1.905-5.382 c1.272-1.395,2.982-2.094,5.133-2.094c2.079,0,3.744,0.687,5.01,2.064C231.171,29.271,231.774,30.999,231.774,33.111z M228.51,33.213c0-1.305-0.282-2.424-0.843-3.357c-0.657-1.128-1.599-1.692-2.817-1.692c-1.266,0-2.226,0.564-2.883,1.692 c-0.564,0.933-0.843,2.07-0.843,3.414c0,1.305,0.282,2.424,0.843,3.357c0.681,1.128,1.629,1.692,2.853,1.692 c1.2,0,2.139-0.573,2.817-1.722C228.222,35.646,228.51,34.518,228.51,33.213z" class="st1"/><path d="M246.99,40.299h-2.823l-0.234-1.629h-0.087c-0.966,1.299-2.343,1.95-4.131,1.95 c-1.335,0-2.415-0.429-3.228-1.281c-0.738-0.774-1.107-1.737-1.107-2.88c0-1.728,0.72-3.045,2.169-3.957 c1.446-0.912,3.48-1.359,6.099-1.338V30.9c0-1.863-0.978-2.793-2.937-2.793c-1.395,0-2.625,0.351-3.687,1.047l-0.639-2.064 c1.314-0.813,2.937-1.221,4.851-1.221c3.696,0,5.55,1.95,5.55,5.85v5.208C246.786,38.34,246.855,39.465,246.99,40.299z M243.726,35.439v-2.181c-3.468-0.06-5.202,0.891-5.202,2.85c0,0.738,0.198,1.29,0.603,1.659s0.921,0.552,1.536,0.552 c0.69,0,1.335-0.219,1.923-0.654c0.591-0.438,0.954-0.993,1.089-1.674C243.708,35.838,243.726,35.652,243.726,35.439z" class="st1"/><path d="M264.855,40.299h-2.79l-0.147-2.271h-0.087c-0.891,1.728-2.409,2.592-4.542,2.592 c-1.704,0-3.123-0.669-4.248-2.007c-1.125-1.338-1.686-3.075-1.686-5.208c0-2.289,0.609-4.143,1.833-5.559 c1.185-1.32,2.637-1.98,4.365-1.98c1.899,0,3.228,0.639,3.984,1.92h0.06v-8.118h3.147v16.821 C264.744,37.866,264.78,39.135,264.855,40.299z M261.597,34.335v-2.358c0-0.408-0.03-0.738-0.087-0.99 c-0.177-0.756-0.558-1.392-1.137-1.905c-0.585-0.513-1.29-0.771-2.103-0.771c-1.173,0-2.091,0.465-2.766,1.398 c-0.669,0.933-1.008,2.124-1.008,3.579c0,1.398,0.321,2.532,0.966,3.405c0.681,0.93,1.599,1.395,2.748,1.395 c1.032,0,1.857-0.387,2.484-1.164C261.3,36.207,261.597,35.343,261.597,34.335z" class="st1"/><path d="M291.744,33.111c0,2.175-0.621,3.957-1.863,5.355c-1.302,1.437-3.024,2.154-5.181,2.154 c-2.073,0-3.726-0.687-4.962-2.067c-1.23-1.377-1.845-3.114-1.845-5.208c0-2.19,0.633-3.987,1.905-5.382 c1.272-1.395,2.982-2.094,5.139-2.094c2.073,0,3.744,0.687,5.004,2.064C291.141,29.271,291.744,30.999,291.744,33.111z M288.486,33.213c0-1.305-0.282-2.424-0.843-3.357c-0.663-1.128-1.599-1.692-2.823-1.692c-1.26,0-2.22,0.564-2.883,1.692 c-0.564,0.933-0.843,2.07-0.843,3.414c0,1.305,0.282,2.424,0.843,3.357c0.681,1.128,1.629,1.692,2.853,1.692 c1.2,0,2.145-0.573,2.823-1.722C288.192,35.646,288.486,34.518,288.486,33.213z" class="st1"/><path d="M308.649,40.299h-3.141v-8.1c0-2.496-0.948-3.744-2.853-3.744c-0.933,0-1.686,0.342-2.268,1.029 c-0.582,0.687-0.873,1.497-0.873,2.424v8.388h-3.147V30.198c0-1.242-0.036-2.589-0.111-4.047h2.76l0.147,2.211h0.087 c0.369-0.687,0.915-1.254,1.629-1.707c0.855-0.528,1.806-0.795,2.853-0.795c1.317,0,2.415,0.426,3.288,1.281 c1.089,1.047,1.629,2.61,1.629,4.686V40.299z" class="st1"/><path d="M329.808,28.512h-3.462v6.87c0,1.746,0.615,2.619,1.833,2.619c0.564,0,1.032-0.048,1.401-0.147l0.081,2.385 c-0.621,0.234-1.437,0.351-2.442,0.351c-1.242,0-2.208-0.378-2.907-1.134c-0.702-0.756-1.05-2.028-1.05-3.813v-7.131h-2.067 v-2.355h2.067v-2.592l3.081-0.93v3.519h3.462v2.358H329.808z" class="st1"/><path d="M346.452,40.299h-3.147v-8.04c0-2.535-0.948-3.804-2.847-3.804c-1.458,0-2.454,0.735-3,2.205 c-0.093,0.309-0.147,0.687-0.147,1.131v8.505h-3.141V19.668h3.141v8.523h0.06c0.99-1.551,2.409-2.325,4.248-2.325 c1.302,0,2.379,0.426,3.234,1.281c1.065,1.065,1.599,2.649,1.599,4.743C346.452,31.89,346.452,40.299,346.452,40.299z" class="st1"/><path d="M363.621,32.559c0,0.564-0.042,1.038-0.117,1.425h-9.429c0.042,1.398,0.492,2.463,1.365,3.201 c0.798,0.66,1.827,0.99,3.087,0.99c1.395,0,2.667-0.222,3.813-0.669l0.492,2.184c-1.341,0.582-2.919,0.873-4.746,0.873 c-2.19,0-3.915-0.645-5.163-1.935c-1.254-1.29-1.875-3.021-1.875-5.193c0-2.133,0.579-3.909,1.746-5.325 c1.218-1.512,2.865-2.268,4.944-2.268c2.034,0,3.579,0.756,4.623,2.268C363.204,29.31,363.621,30.795,363.621,32.559z M360.621,31.746c0.024-0.933-0.183-1.737-0.609-2.415c-0.546-0.873-1.377-1.311-2.502-1.311c-1.026,0-1.863,0.426-2.502,1.281 c-0.522,0.681-0.831,1.494-0.933,2.445C354.075,31.746,360.621,31.746,360.621,31.746z" class="st1"/></g></g></g></svg>